<svg xmlns="http://www.w3.org/2000/svg" xmlns:xlink="http://www.w3.org/1999/xlink"><symbol viewBox="0 0 512 512" id="arrow-left"><path d="M320 512l96-96-160-160L416 96 320 0 64 256l256 256z"/></symbol><symbol viewBox="0 0 512 512" id="arrow-right"><path d="M192 0L96 96l160 160L96 416l96 96 256-256L192 0z"/></symbol><symbol viewBox="0 0 512 512" id="calendar"><path d="M160 192h64v64h-64v-64zm96 0h64v64h-64v-64zm96 0h64v64h-64v-64zM64 384h64v64H64v-64zm96 0h64v64h-64v-64zm96 0h64v64h-64v-64zm-96-96h64v64h-64v-64zm96 0h64v64h-64v-64zm96 0h64v64h-64v-64zm-288 0h64v64H64v-64zM416 0v32h-64V0H128v32H64V0H0v512h480V0h-64zm32 480H32V128h416v352z"/></symbol><symbol viewBox="0 0 512 512" id="cc"><path d="M255.645 0C185.51 0 123.788 25.955 76.09 74.347 27.004 124.147.355 188.67.355 256.007c0 68.028 25.94 131.147 75.04 180.25C124.49 485.35 188.313 512 255.646 512s132.56-26.65 183.058-76.445c47.697-46.994 72.94-109.412 72.94-179.547 0-69.44-25.243-132.563-73.643-180.96C388.908 25.956 325.78 0 255.645 0zm.702 46.293c57.512 0 108.71 21.742 148.694 61.72 39.272 39.28 60.312 91.178 60.312 147.995 0 57.512-20.338 108-59.608 146.588-41.385 40.676-94.685 62.417-149.395 62.417-55.405 0-107.315-21.74-147.29-61.716-39.974-39.98-62.426-92.586-62.426-147.29 0-55.412 22.452-108.012 62.426-148.696 39.278-39.973 89.776-61.017 147.287-61.017zm-3.305 167.177c-14.453-26.373-39.13-36.865-67.768-36.865-41.686 0-74.867 29.49-74.867 79.403 0 50.76 31.193 79.396 76.287 79.396 28.922 0 53.6-15.88 67.207-39.98l-31.76-16.166c-7.093 17.018-17.87 22.113-31.478 22.113-23.533 0-34.31-19.563-34.31-45.36 0-25.814 9.072-45.38 34.31-45.38 6.808 0 20.416 3.693 28.36 20.702l34.02-17.862zm147.683 0c-14.46-26.373-39.13-36.865-67.766-36.865-41.69 0-74.868 29.49-74.868 79.403 0 50.76 31.193 79.396 76.287 79.396 28.92 0 53.59-15.88 67.198-39.98l-31.762-16.166c-7.084 17.018-17.86 22.113-31.48 22.113-23.523 0-34.308-19.563-34.308-45.36 0-25.814 9.08-45.38 34.31-45.38 6.81 0 20.417 3.693 28.368 20.702l34.02-17.862z"/></symbol><symbol viewBox="0 0 512 512" id="download"><path d="M400 192H288V64h-64v128H112l144 128 144-128zm-28.45 74.316l-16.806 14.787C410.614 292.295 448 312.69 448 336c0 35.348-85.96 64-192 64S64 371.348 64 336c0-23.31 37.386-43.705 93.255-54.896l-16.804-14.787C57.123 282.15 0 314.572 0 352c0 53.02 114.615 96 256 96s256-42.98 256-96c0-37.428-57.12-69.85-140.45-85.684z"/></symbol><symbol viewBox="0 0 512 512" id="feed"><path d="M426.67 0H85.343C38.405 0 0 38.406 0 85.344v341.314C0 473.625 38.406 512 85.344 512H426.67c46.938 0 85.33-38.374 85.33-85.342V85.344C512 38.406 473.608 0 426.67 0zM139.472 415.624C115.487 415.624 96 396.277 96 372.31c0-23.842 19.486-43.405 43.472-43.405 24.08 0 43.53 19.563 43.53 43.406 0 23.967-19.452 43.314-43.53 43.314zm109.262.374c0-40.905-15.904-79.41-44.73-108.223-28.857-28.875-67.188-44.812-107.952-44.812V200.37c118.826 0 215.563 96.72 215.563 215.627h-62.88zm111.08 0c0-145.53-118.33-263.97-263.688-263.97V89.404c180 0 326.473 146.562 326.473 326.596l-62.786-.002z"/></symbol><symbol viewBox="0 0 512 512" id="folder"><path d="M492.25 128H19.75C6.55 128-2.132 138.59.457 151.534l58.836 272.932C61.883 437.41 74.8 448 88 448h336c13.2 0 26.118-10.59 28.707-23.534l58.836-272.932C514.133 138.59 505.45 128 492.25 128zM448 88c0-13.255-10.745-24-24-24H208l-16-32H88c-13.255 0-24 10.745-24 24v56h384V88z"/></symbol><symbol viewBox="0 0 512 512" id="github"><path d="M256 0C114.615 0 0 114.615 0 256s114.615 256 256 256 256-114.615 256-256S397.385 0 256 0zm152.028 408.027c-19.76 19.76-42.756 35.267-68.354 46.094-6.503 2.75-13.106 5.165-19.8 7.247V423c0-20.167-6.917-35-20.75-44.5 8.667-.833 16.625-2 23.875-3.5s14.916-3.667 23-6.5 15.332-6.208 21.75-10.125 12.582-9 18.5-15.25 10.874-13.333 14.874-21.25 7.167-17.417 9.5-28.5 3.5-23.292 3.5-36.625c0-25.833-8.417-47.833-25.25-66 7.667-20 6.833-41.75-2.5-65.25l-6.25-.75c-4.333-.5-12.125 1.333-23.375 5.5s-23.876 11-37.876 20.5c-19.833-5.5-40.417-8.25-61.75-8.25-21.5 0-42 2.75-61.5 8.25-8.833-6-17.208-10.958-25.125-14.875s-14.25-6.583-19-8-9.168-2.292-13.25-2.625-6.71-.417-7.876-.25-2 .333-2.5.5c-9.333 23.667-10.167 45.417-2.5 65.25-16.833 18.167-25.25 40.167-25.25 66 0 13.333 1.167 25.542 3.5 36.625s5.5 20.583 9.5 28.5 8.958 15 14.875 21.25 12.082 11.333 18.5 15.25 13.666 7.292 21.75 10.125 15.75 5 23 6.5 15.207 2.667 23.874 3.5c-13.667 9.333-20.5 24.167-20.5 44.5v39.115c-7.55-2.247-14.99-4.902-22.3-7.994-25.597-10.826-48.594-26.334-68.353-46.093-19.757-19.758-35.266-42.756-46.092-68.354C46.678 313.195 41 285.043 41 256s5.68-57.195 16.88-83.675c10.826-25.597 26.334-48.594 46.092-68.353 19.758-19.76 42.756-35.267 68.353-46.093C198.805 46.68 226.957 41 256 41s57.195 5.68 83.675 16.88c25.6 10.826 48.595 26.334 68.354 46.092 19.757 19.758 35.265 42.756 46.092 68.353C465.322 198.805 471 226.957 471 256s-5.68 57.195-16.88 83.675c-10.826 25.596-26.334 48.595-46.092 68.352z"/></symbol><symbol viewBox="0 0 512 512" id="question"><path d="M298.907 388.533h-92.593c-4.11 0-7.713 1.554-10.8 4.634-3.09 3.09-4.63 6.688-4.63 10.803v92.598c0 4.115 1.545 7.72 4.63 10.804 3.087 3.085 6.685 4.63 10.8 4.63h92.593c4.115 0 7.723-1.545 10.804-4.63 3.094-3.085 4.634-6.688 4.634-10.804V403.97c0-4.115-1.536-7.714-4.633-10.803-3.08-3.09-6.688-4.634-10.803-4.634zM420.448 111.338c-10.543-19.43-24.173-35.82-40.895-49.198-16.718-13.372-35.504-24.052-56.332-32.023-20.83-7.968-41.535-11.956-62.115-11.956-78.19 0-137.86 34.21-179.02 102.63-2.054 3.342-2.764 6.942-2.12 10.802.644 3.854 2.637 7.07 5.98 9.642l63.275 48.23c3.344 2.054 6.56 3.083 9.647 3.083 4.63 0 8.616-2.06 11.96-6.177 18.518-23.145 32.28-37.935 41.282-44.368 11.06-7.457 24.946-11.184 41.666-11.184 15.688 0 29.512 4.116 41.476 12.34 11.96 8.232 17.934 17.75 17.934 28.553 0 12.084-3.21 21.863-9.643 29.323-6.433 7.457-17.235 14.655-32.412 21.604-20.056 9-38.455 22.956-55.166 41.862-16.723 18.903-25.08 39.03-25.08 60.376v17.366c0 4.888 1.345 9.71 4.05 14.465 2.703 4.764 5.98 7.14 9.84 7.14h92.595c4.115 0 7.713-1.987 10.803-5.982 3.08-3.98 4.63-8.157 4.63-12.528 0-6.428 3.536-15.053 10.603-25.85 7.075-10.805 15.88-19.17 26.433-25.09 10.025-5.65 17.864-10.215 23.53-13.693 5.668-3.463 13.06-9.066 22.19-16.782 9.125-7.718 16.2-15.372 21.215-22.956 5.017-7.586 9.52-17.427 13.51-29.518 3.99-12.088 5.978-25.08 5.978-38.966.002-21.352-5.27-41.735-15.815-61.144z"/></symbol><symbol viewBox="0 0 512 512" id="quill"><path d="M192 293.333s101.973-61.18 159.383-37.013c11.9-18.134 23.624-37.668 35.102-57.61C330.32 184.95 256 197.332 256 197.332s95.106-57.06 153.333-39.2c11.675-21.054 23.027-41.82 33.978-61.152-46.387-3.133-91.31 4.353-91.31 4.353s59.574-35.744 113.29-41.8C482.187 32.104 497.873 10.594 512 0 231.5 0 64 320 0 512h32l96-160s32 32 128 0c22.736-7.58 45.474-28.626 67.786-56.967-56.307-14.277-131.786-1.7-131.786-1.7z"/></symbol><symbol viewBox="0 0 512 512" id="tag"><path d="M463.906 0h-144.28c-26.454 0-63.4 15.303-82.103 34.007L14.028 257.502c-18.704 18.704-18.704 49.312 0 68.016L186.483 497.97c18.704 18.706 49.31 18.706 68.015 0l223.495-223.493C496.697 255.772 512 218.827 512 192.375V48.095C512 21.64 490.357 0 463.906 0zM400 160c-26.51 0-48-21.49-48-48s21.49-48 48-48 48 21.49 48 48-21.49 48-48 48z"/></symbol><symbol viewBox="0 0 512 512" id="twitter"><path d="M512 97.21c-18.838 8.353-39.082 14-60.33 16.54 21.686-13 38.343-33.586 46.186-58.116-20.298 12.04-42.777 20.78-66.704 25.49-19.16-20.415-46.46-33.17-76.674-33.17-58.01 0-105.043 47.03-105.043 105.04 0 8.232.93 16.25 2.72 23.938-87.3-4.382-164.7-46.2-216.51-109.753-9.04 15.513-14.222 33.557-14.222 52.808 0 36.444 18.544 68.596 46.73 87.433-17.22-.545-33.416-5.27-47.577-13.138-.01.438-.01.878-.01 1.32 0 50.895 36.21 93.35 84.26 103-8.812 2.4-18.093 3.687-27.673 3.687-6.77 0-13.35-.66-19.764-1.888 13.367 41.73 52.16 72.104 98.125 72.95-35.95 28.173-81.243 44.966-130.458 44.966-8.48 0-16.84-.497-25.058-1.47 46.485 29.805 101.7 47.196 161.02 47.196 193.21 0 298.868-160.062 298.868-298.872 0-4.554-.103-9.084-.305-13.59 20.527-14.81 38.335-33.31 52.417-54.373z"/></symbol><symbol viewBox="0 0 512 512" id="xing"><path d="M135.762 348.954H68.945c-4.024 0-7.03-1.807-8.732-4.556-1.762-2.857-1.852-6.562 0-10.25l70.994-125.283c.076-.137.076-.228 0-.38L86.03 130.28c-1.87-3.722-2.142-7.396-.38-10.25 1.702-2.764 5.086-4.177 9.11-4.177h66.817c10.25 0 15.278 6.604 18.604 12.528 0 0 45.665 79.666 45.94 80.105-2.706 4.768-72.134 127.56-72.134 127.56-3.416 6.165-8.23 12.91-18.224 12.91zm315.956-310.02L303.776 300.51c-.09.138-.09.307 0 .44l94.2 172.103c1.868 3.703 1.913 7.474.136 10.327-1.7 2.748-4.844 4.266-8.867 4.266h-66.742c-10.235 0-15.353-6.802-18.664-12.726 0 0-94.7-173.728-94.943-174.18 4.737-8.382 148.686-263.657 148.686-263.657 3.584-6.44 7.91-12.727 17.888-12.727h67.504c4.026 0 7.184 1.52 8.883 4.268 1.76 2.854 1.713 6.62-.14 10.31z"/></symbol></svg>