<?xml version="1.0" standalone="no"?>
<!DOCTYPE svg PUBLIC "-//W3C//DTD SVG 1.1//EN" "http://www.w3.org/Graphics/SVG/1.1/DTD/svg11.dtd">
<svg width="512px" height="512px" version="1.1" xmlns="http://www.w3.org/2000/svg" xmlns:xlink="http://www.w3.org/1999/xlink" xml:space="preserve" style="fill-rule:evenodd;clip-rule:evenodd;stroke-linejoin:round;stroke-miterlimit:1.41421;">
    <g>
        <path d="M405.624,81.9058C459.342,126.28 493.675,194.041 493.675,269.968C493.675,403.639 387.264,512 256,512C124.736,512 18.3252,403.639 18.3252,269.968C18.3252,194.563 52.1878,127.371 105.272,82.9833C105.272,82.9833 122.17,70.2164 141.099,82.9833C153.637,91.4396 153.774,114.291 153.774,114.291C153.774,114.291 178.879,193.747 252.179,193.747C334.951,193.747 358.205,114.291 358.205,114.291C358.205,114.291 355.737,91.6796 369.431,82.9833C389.932,69.3794 405.624,81.9058 405.624,81.9058L405.624,81.9058ZM163.077,426.706C224.055,464.099 286.449,461.833 350.017,426.706C316.361,373.169 283.336,368.232 252.179,368.232C221.023,368.232 185.517,385.855 163.077,426.706ZM100.389,182.335C60.7719,244.782 69.9928,322.81 110.298,377.705C152.198,354.429 169.986,311.132 170.003,276.872C170.018,244.269 142.878,197.601 100.389,182.335ZM402.128,377.287C438.947,319.324 447.919,246.69 411.848,180.342C363.586,201.419 343.176,244.048 341.556,276.872C339.936,309.696 358.032,353.064 402.128,377.287ZM253.87,224.837L269.191,260.879L308.204,264.312L278.66,290.021L287.45,328.184L253.87,308.031L220.291,328.184L229.081,290.021L199.537,264.312L238.55,260.879L253.87,224.837ZM256,0C298.041,0 332.121,34.0806 332.121,76.1211C332.121,118.162 298.041,152.242 256,152.242C213.959,152.242 179.879,118.162 179.879,76.1211C179.879,34.0806 213.959,0 256,0Z" style="fill:black;"/>
    </g>
</svg>
