<?xml version="1.0" encoding="utf-8"?>
<!-- Generator: Adobe Illustrator 15.0.2, SVG Export Plug-In . SVG Version: 6.00 Build 0)  -->
<!DOCTYPE svg PUBLIC "-//W3C//DTD SVG 1.1//EN" "http://www.w3.org/Graphics/SVG/1.1/DTD/svg11.dtd">
<svg version="1.1" id="Ebene_1" xmlns="http://www.w3.org/2000/svg" xmlns:xlink="http://www.w3.org/1999/xlink" x="0px" y="0px"
	 width="512px" height="512px" viewBox="0 0 512 512" enable-background="new 0 0 512 512" xml:space="preserve">
<path fill-rule="evenodd" clip-rule="evenodd" d="M492.2,19.922c-0.927,1.695-4.399,1.104-2.598,4
	c1.288,2.07,3.666,3.369,5.599,4.729c4.138,2.917,4.81,6.613,6.309,11.173c1.562,4.747-0.31,8.284,1.589,13.665
	c0.198,0.563,7.23,5.237,2.741,5.986c-0.992-0.379-1.266-1.106-0.818-2.183c-7.684,2.594,1.196,5.014,1.364,5.183
	c0.231,5.685,0.256,10.52,0.272,16.094c0.012,7.124-0.685,13.654,0,20.731c0.325,3.381-0.683,6.712-1.337,9.983
	c-1.014,5.064,0.797,9.571,0.026,14.483c-0.644,4.104,1.178,7.773,0.764,11.813c-0.33,3.288-1.618,6.761-1.909,10.093
	c-0.417,4.82-1.807,9.776-2.182,14.456c-0.602,7.475,0.571,16.452,0.977,24.019c0.472,8.793-2.279,16.706-2.361,25.658
	c-0.104,11.227-2.184,24.208-0.798,34.611c-3.071,5.907-0.275,14.604,0.025,20.827c0.438,9.052-2.628,15.981-3.845,24.455
	c-1.012,7.035,1.289,16.19,1.95,23.38c0.676,7.356,1.261,14.773,1.05,22.172c-0.536,19.296,0.501,38.597,0.499,57.891
	c-0.002,7.14-2.669,13.612-2.407,20.942c0.289,8.029,1.825,15.91,2.02,23.968c0.117,4.836,3.084,21.859-0.277,25.258
	c-1.789,1.81-1.223,5.235-0.106,7.238c-0.588,1.866-0.951,3.776-1.09,5.729c-1.235,1.915-2.6,3.733-4.093,5.455
	c-2.46,4.608-4.294,12.71-10.911,12.548c-4.464,5.686-11.831,8.037-18.218,10.774c-7.838,3.358-15.073-0.485-22.607,0.926
	c-7.567,1.418-17.72,0.382-25.458,0.028c-11.029-0.498-22.921-2.098-34.369-1.091c-13.013,1.15-24.062-4.78-37.007-2.876
	c-6.407,0.942-12.458-0.437-18.64-0.396c-7.948,0.047-15.643,0.033-23.73,0.818c-6.023,0.58-12.386,2.694-18.55,2.182
	c-7.347-0.61-14.461-4.395-22.178-3.021c-7.058,1.255-15.039,0.999-22.281,1.375c-3.404,0.177-5.781,0.967-8.988,1.794
	c-3.417,0.882-4.342-2.134-7.384-2.329c-4.266-0.275-13.764-1.867-17.629,0.105c-7.369,3.762-17.144-0.777-24.651-0.924
	c-11.988-0.241-26.333,0.255-38.188,2.182c-6.498,1.055-13.022-0.792-19.367-1.363c-6.566-0.589-15.47,0.549-22.098,1.447
	c-6.837,0.926-14.746,0.509-21.819,1.007c-5.082,0.367-9.906,1.253-15.275,1.363c-3.625,0.076-17.846-2.49-19.36-5.732
	c-1.988-4.257-14.45-3.047-18.283-8.724c-5.754-8.53-9.525-17.502-12.002-27.278c-3.327-13.14,0.55-28.524,0-41.733
	c-0.228-5.537,1.863-10.936,2.182-16.366c0.409-6.912-0.985-13.582-1.637-20.46c-1.412-14.914-3.432-29.26-2.616-44.3
	c0.799-14.729,2.683-29.023,2.07-43.805c-0.53-12.947,0.261-24.962,0.818-37.916c1.222-28.219-1.609-56.789-2.728-85.107
	c-0.535-13.867,2.55-30.166-1.445-43.754c-0.723-2.458-1.936-2.349-3.771-3.717c-2.713-2.024,0.688-4.597,0.852-6.811
	c0.566-7.551-3.791-15.367-2.182-23.459C8.094,87.166,4.34,76.979,5.57,66.294c1.345-11.741,2.315-26.302,8.358-36.712
	c2.478-4.269,5.361-6.913,9.165-9.986c6.73-5.44,13.32-3.711,20.221-8.163c5.393-3.479,21.896,3.707,24.995-2.967
	c12.526-5.397,26.298-1.285,39.006,0.545c4.769,0.688,11.77,1.784,16.513,0.777c2.464-0.522,9.492-0.231,12.021,0.263
	c4.646,0.907,11.204,1.063,15.986,0.836c6.046-0.287,11.935,2.625,17.834,2.313c6.547-0.345,13.014-1.382,19.479-1.734
	c6.438-0.351,13.751,1.503,19.967-0.03c11.11-2.741,24.488,0.135,35.769,1.292c6.967,0.714,13.944,1.323,20.914,2.011
	c7.085,0.702,13.58-1.489,20.457-1.09c5.022,0.288,8.482,0.078,13.639-0.273c7.002-0.477,13.237,1.821,20.212,0.746
	c13.2-2.035,26.618-0.213,39.617-1.364c11.428-1.012,23.028,1.896,34.55,0.892c11.499-1.009,22.525-1.194,33.827-2.183
	c11.727-1.029,22.421-2.957,34.134-1.749c4.896,0.505,9.08,1.897,14.146,2.294C480.78,12.356,490.689,14.877,492.2,19.922
	C491.341,21.495,491.232,16.69,492.2,19.922z M179.6,206.773c-0.408-6.883,0.908-14.17,1.092-21.004
	c0.185-7.176,0.403-14.15,0.272-21.276c-0.101-5.541-1.414-17.364,1.248-22.17c1.387-2.504,0.769-5.628,0.662-8.381
	c-0.19-4.958,0.356-7.442,1.637-12.275c2.926-11.041,7.153-22.279,13.777-31.832c8.003-11.542,23.92-15.705,36.034-21.529
	c10.631-5.112,20.761,0.82,17.837-15.651c-1.137-6.417-4.106-11.568-6.001-17.73c-1.942-6.336-5.077-5.191-11.729-5.729
	c-14.239-1.15-28.091,0.962-42.536-0.304c-6.626-0.582-10.609,2.807-17.475,0.032c-7.897,0.734-14.68-0.727-22.906-0.456
	c-6.273,0.206-13.063,1.773-19.374,1.274c-4.114-0.325-6.599-2.688-11.026-2.017c-3.268,0.495-6.286,1.546-9.264-0.384
	c-3.798-2.462-8.709,1.519-13.036-0.854c-5.256-2.881-18.742-1.731-24.472-0.568c-11.634,2.361-25.735,1.499-34.945,10.369
	c-6.562,6.323-15.781,17.803-12.514,27.653c1.065,3.21-1.727,15.054-3.225,18.003c-2.077,4.087,0.329,16.933,0.736,21.719
	c0.562,6.576-2.908,12.28-0.965,18.43c2.277,7.206,3.157,16.125,3.965,23.578c1.487,13.684-0.891,26.396-1.052,40.017
	c-0.056,4.701,0.585,11.81,6.131,7.231c6.205-5.123,11.413,6.183,12.379,10.034c4.57,18.243,17.944,30.74,37.304,30.923
	c13.169,0.125,10.6-13.488-1.297-12.647c-6.948-2.788-19.199-5.718-23.186-12.82c-8.083-14.386-8.798-41.381,12.816-42.931
	c4.434-0.318,7.481-3.351,12.093-3.397c5.553-0.056,10.962,0.41,16.528,0.161c8.817-0.393,20.504,0.898,29.211,2.522
	c13.604,2.53,37.257,19.787,28.114,36.314c-1.765,3.191-1.9,6.968-5.089,9.247c-4.303,3.075-8.657,3.762-12.771,7.153
	c-8.171,6.734-24.046-0.647-32.076,6.75c0.804,3.159-2.796,8.391,1.473,10.069c4.797,1.886,9.752-0.461,14.348-1.067
	c8.766-1.159,16.643-0.111,24.518-4.248c5.824-3.06,17.512-7.249,20.491-14.029c1.059-2.414,2.461-9.974,7.356-6.09
	C178.714,212.066,179.984,213.171,179.6,206.773C179.488,204.888,179.692,208.31,179.6,206.773z M460.832,28.651
	c-5.135-1.718-7.287-2.271-12.762-2.478c-4.613-0.174-13.282,3.677-17.087,0.694c-3.534-2.772-6.709,4.059-6.705,7.239
	c0.019,7.366,1.705,13.454,0.547,21.276c-1.792,12.064,0.62,24.209,1.91,36.006c1.727,16.052-0.842,33.413-0.548,49.646
	c10.298,2.128,22.301-8.119,27.557-15.738c7.219-10.465,10.703-19.369,14.998-31.18c5.028-13.852,8.347-25.835,9.845-40.996
	c0.483-4.896,3.733-16.04-1.348-19.523C471.917,29.95,466.515,30.557,460.832,28.651C459.136,28.083,463.507,29.548,460.832,28.651z
	 M403.821,28.105c-1.506,0.427-2.597,1.336-3.273,2.728c-3.881-0.394-6.628-0.007-10.366,0.273
	c-3.729,0.28-15.129-2.658-14.749,3.529c0.558,9.059-5.403,18.194-5.162,27.567c0.244,9.401,0.265,20.088,3.544,28.914
	c2.01,5.339,3.948,10.782,4.366,16.367c0.441,5.906,5.771,11.444,7.91,16.639c3.293,8.018,12.962,10.004,19.892,14.848
	c8.194,5.728,5.357-11.963,5.223-15.766c-0.26-7.336,0.015-14.966,0.254-22.268c0.452-13.872-2.199-27.657-1.908-41.461
	C409.646,54.461,407.158,27.69,403.821,28.105C401.47,28.399,404.531,28.017,403.821,28.105z M369.179,126.032
	c-4.307-14.512-11.175-26.318-11.001-42.244c0.148-13.681-1.787-26.331-0.183-39.862c0.498-4.168,0.738-14.771-5.349-15.09
	c-5.068-0.266-12.264,0.508-17.292,1.179c-3.13,0.419-15.273,0.417-15.072,4.474c0.092,1.853,2.206,5.536,3.071,6.983
	c2.035,3.415,2.222,7.21,4.363,10.638c2.691,4.303,8.175,5.41,10.525,9.447c3.294,5.659,5.67,10.696,6.039,17.387
	c0.757,13.694-16.89,18.934-2.38,30.721c3.547,2.878,10.933,8.644,13.092,12.548c1.863,3.352,6.688,14.464-1.361,13.639
	c-11.691-1.191-17.71-15.848-23.732-23.186c-2.678-3.268-10.805-7.528-12.511-1.029c-1.74,6.631,6.951,11.332,9.026,16.813
	c2.387,6.308,6.47,10.569,10.034,16.084c2.484,3.844-0.963,11.3-5.653,7.667c-4.125-3.194-7.868-3.582-10.717-8.712
	c-3.095-5.589-6.35-11.491-10.093-16.639c-6.465-8.891-18-7.637-24.277,0.817c-4.177,5.645,3.209,11.492,3.99,16.908
	c0.312,2.16,1.464,4.911,1.193,7.097c-0.338,2.724-2.405,4.073-2.184,7.092c-3.2,5.637-6.127,11.795-8.729,17.731
	c-1.663,3.801-10.105,10.699-0.545,10.365c6.421-0.226,13.744-3.384,20.186-3c7.19,0.427,13.305,1.093,20.729,0.545
	c5.149-0.381,16.277,1.398,13.286,8.913c-2.923,7.343-4.016,8.272-12.467,7.726c-6.402-0.409-11.749-2.292-18.297-0.246
	c-7.899,2.469-9.668-2.582-9.799,8.975c-0.037,3.369-0.139,13.214,4.325,13.58c6.828,0.559,15.856,0.698,22.632,0.311
	c3.568-0.204,13.176,0.901,14.072,4.522c2.058,8.307-6.354,8.328-11.567,7.501c-12.801-2.026-27.033,4.052-39.592,0.699
	c-10.191-2.721-31.354,7.519-39.043-1.48c-10.275-12.023,29.622-8.131,31.99-9.585c3.646-2.244,3.651-9.712,3-13.093
	c-0.723-3.779-1.308-6.046-1.198-10.034c0.176-6.405-4.18-3.608-8.326-3.042c-4.062,0.556-4.982-1.699-8.479-1.927
	c-2.163-0.141-4.711,1.48-6.884,1.787c-4.184,0.589-12.143-2.978-11.938-8.389c0.274-7.262,8.881-8.053,14.377-6.296
	c7.452,2.382,10.335,0.714,14.948-5.97c3.941-5.711,6.606-12.271,6.507-19.257c-0.108-7.702-5.381-13.174-6.645-20.521
	c-1.077-6.31,1.918-12.552-4.989-15.629c-5.688-2.535-5.045-8.668-7.813-13.154c-2.745-4.448-0.538-11.965-1.653-17.043
	c-1.644-7.464-6.104-9.359-12.821-9.274c-6.991,0.091-11.075,1.022-17.185,4.365c-5.611,3.067-10.929,2.643-14.679,8.465
	c-2.055,3.189-7.573,10.333-7.016,14.36c0.725,5.242-8.121,9.278-7.061,15.607c0.655,3.915-2.806,16.276,1.392,18.292
	c5.65,2.714,14.975,1.95,21.09,2.467c7.188,0.612,41.06-4.27,41.369,4.978c0.294,8.815-8.295,5.803-14.06,5.976
	c-7.361,0.221-6.8,6.228-7.668,11.414c-2.061,12.259-9.373,21.658-22.641,21.276c-6.551-0.19-12.923-1.212-19.713-1.097
	c-6.103,0.104-6.017,5.214-5.655,10.371c0.557,7.946,0.041,14.39,8.184,16.366c5.712,1.389,13.354,1.849,19.167,1.12
	c4.56-0.572,33.063-0.223,19.243,9.601c-7.048,5.01-10.566-3.204-12.498,7.828c-1.217,6.951-3.808,13.546-11.11,15.326
	c-5.821,1.418-12.068,0.496-17.805,2.131c-8.196,2.335-3.443,14.336-4.091,20.186c-0.349,3.137-1.544,6.098-1.637,9.272
	c2.432,1.445,7.504,0.195,10.096,0.243c8.429,0.156,16.402,0.467,24.788-0.3c7.153-0.654,8.163,1.2,8.76,7.696
	c-1.868,3.959-9.35,0.052-10.911,4.638c-2.038,5.983,2.555,10.377-3.606,15.333c-5.462,4.395-10.393,5.823-16.306,8.671
	c-5.997,2.88-14.264-1.269-14.303,7.45c-0.03,6.688,3.044,13.705,1.906,20.187c-1.194,6.797-2.192,16.488-1.299,23.322
	c1.13,8.649-0.851,15.777-3.14,24.137c-3.324,12.137-0.9,20.516-10.714,30.194c-3.997,3.946-9.144,7.928-14.184,10.365
	c-9.73,4.713-4.282,8.188-8.526,16.454c-2.407,4.687-6.151,8.289-8.444,12.717c-2.306,4.452-7.961,5.232-10.812,9.259
	c-3.934,5.559-9.784,4.174-14.071,8.852c-4.725,5.155,2.336,9.119,7.321,7.742c9.853-2.722,23.085-1.655,33.168-1.286
	c10.444,0.372,21.163,0.666,32.024,0.492c7.24-0.116,13.608,0.707,20.83,0.501c6.133-0.174,11.983-0.128,18.067-0.447
	c7.458-0.395,14.553,0.936,21.823-0.725c6.931-1.584,14.856,3.242,22.017,0.716c7.274-2.568,32.338,7.601,23.264-7.357
	c-3.002-4.936-10.07-6.566-13.45-12.044c-3.964-6.423-10.336-10.842-13.573-18.054c-3.499-7.795-5.331-15.595-7.581-23.79
	c-1.594-5.802-2.638-14.989-5.766-20.033c-2.382-3.827-9.273,0.71-13.14,0.533c-6.87-0.314-15.71-0.495-21.504-4.353
	c-11.187-7.451-9.425-20.938-7.637-32.46c2.545-16.484,15.971-18.117,30.103-23.695c7.362-2.906,5.022-12.107,5.903-18.312
	c0.524-3.688,1.922-6.47,1.091-10.365c-0.479-2.239-1.932-3.044-1.992-5.539c-0.124-5.166-9.953-2.448-11.278-8.49
	c-1.703-7.767,17.869-3.681,21.181-3.43c8.934,0.679,68.691-1.623,55.372-18.003c-6.377-7.848-26.435-2.395-35.461-1.364
	c-5.13,0.587-15.259,1.643-20.071-0.818c-7.27-3.717-15.286,2.253-21.388-5.527c-6.912-8.812,24.297-7.725,27.821-7.292
	c4.821,0.589,10.932,0.139,15.744-0.48c6.407-0.824,12.434,1.351,18.705-0.038c2.907-0.644,9.994-0.078,11.608-2.916
	c2.241-3.94-5.919-3.863-7.86-5.092c-10.572-6.685-23.785-2.624-34.761-3.48c-10.822-0.845-24.974,4.994-35.001-0.152
	c-3.125-1.604-2.916-8.4,0.648-9.257c4.047-0.972,8.556-0.187,12.641,0.14c10.492,0.834,19.923-2.067,30.005-2.728
	c5.925-0.389,11.813,0.624,17.732,0.545c5.54-0.074,8.952,1.924,14.455,3.273c10.506,2.581,20.366,9.238,23.667,20.209
	c1.099,3.651,3.83,7.289,7.703,8.432c8.961,2.65,7.112-6.011,7.093-12.273c-0.046-10.644,2.613-18.863,7.092-28.37
	c5.797-12.334,10.746-17.913,22.367-25.913c10.143-6.994,18.965-13.297,30.06-19.208c5.847-3.115,3.522-10.335,3.922-16.358
	c0.274-4.133,0.96-17.791-3.237-19.609c-7.509-3.253-22.204-2.877-26.876-10.037C379.175,137.374,371.665,134.411,369.179,126.032
	C368.79,124.723,369.672,127.694,369.179,126.032z M316.26,65.749c-4.743-8.157-5.314-18.358-9.273-26.732
	c-5.209-11.003-14.262-8.005-25.199-7.948c-6.133,0.032-12.668-0.22-18.777,0.294c-3.743,0.314,1.274,10.861,1.393,12.98
	c0.495,8.935,9.827,19.427,7.442,28.728c-1.348,5.257,0.075,8.978-0.46,14.26c-0.625,6.17,2.354,11.573,1.776,17.425
	c5.909,8.92,17.387,0.851,25.097-0.546c3.261-0.59,7.956-0.61,10.993-1.841c4.349-1.762,6.944-5.483,11.1-7.161
	c4.747-1.91,6.968-9.898,6.981-14.387c0.011-3.349-0.64-6.959-2.343-9.891C321.891,69.755,318.082,68.878,316.26,65.749
	C315.735,64.847,318.021,68.773,316.26,65.749z M505.567,67.658c0.75-1.32-0.48-2.71-1.638-3
	C503.228,65.928,503.739,68.038,505.567,67.658z M487.564,92.208c-3.518,1.354-8.361,18.545-10.449,22.53
	c-4.063,7.758-9.584,18.515-15.416,25.045c-5.738,6.425-17.026,13.881-25.645,14.306c-12.507,0.616-9.146,8.285-9.625,17.498
	c-0.449,8.632,3.468,12.106,10.942,13.365c8.408,1.41,18.977,7.788,23.188,15.547c5.346,9.902,10.591,19.311,12.229,30.664
	c0.661,4.579,0.281,11.39,3.327,14.867c2.558,2.919,4.166,11.759,7.356,13.117c1.649-2.569,0.421-15.947,0-19.094
	c-0.76-5.667-3.352-15.216,0.102-20.332c1.903-2.82,0.147-3.732-0.646-6.401c-1.447-4.857,1.667-6.52,2.182-10.638
	c0.82-6.631,1.506-14.288,1.364-21.004c-0.201-9.308-0.309-19.067,0.153-28.326c0.44-8.829-0.896-16.49,1.935-24.972
	c1.088-3.259-1.702-3.583-2.088-6.44c-0.404-2.978,1.702-9.595,2.672-12.574C489.853,107.189,490.853,92.208,487.564,92.208
	C487.17,92.36,487.653,92.208,487.564,92.208z M195.148,171.858c-0.316,11.981,16.167,10.875,24.076,11.427
	c10.58,0.738,11.618-10.758,13.294-17.974c2.423-10.401-7.936-8.821-16.171-9.234c-5.204-0.262-11.172-1.147-16.289,0.233
	C197.579,156.978,195.235,168.569,195.148,171.858C195.099,173.726,195.259,167.675,195.148,171.858z M66.126,187.951
	c-0.804,7.376,3.203,14.869,10.092,16.095c9.043,7.135,18.016,9.31,29.575,8.407c6.973-0.544,39.849-2.016,36.45-14.316
	c-2.268-8.204-2.093-10.007-9.015-15.914c-5.848-4.996-15.992-10.6-23.988-10.858c-8.298-0.268-16.793,0.824-25.111,1.583
	C77.187,173.587,67.024,179.686,66.126,187.951C65.619,192.607,66.405,185.382,66.126,187.951z M27.937,207.319
	c3.132,12.695,1.889,27,1.091,40.098c-0.895,14.715-1.956,29.17-1.364,43.917c0.295,7.494,0.995,14.955,0.993,22.635
	c-0.002,6.875-0.867,13.426-0.722,20.323c0.313,14.91-1.68,29.072,1.639,43.512c2.875,12.479-0.719,26.111,0,39.008
	c0.796,14.167-1.145,28.47-0.466,43.107c0.605,13.035,9.257,28.734,24.197,26.45c6.115,3.115,13.999,1.339,20.566,1.794
	c3.217,0.223,7.14,0.78,9.985-1.249c5.027,0.321,10.274,2.144,15.275,0.546c4.05-1.29,8.723-6.786,12.275-9.274
	c5.288-3.715,10.852-7.28,16.093-10.91c4.912-3.403,6.583-10.191,11.184-14.185c3.88-3.373,3.315-13.296,2.728-17.458
	c-1.803-12.795-6.04-20.478-14.185-30.005c-4.995-5.846-7.989-6.95-14.708-10.388c-11.032-5.644-5.801,7.416-9.19,13.227
	c-6.199,10.629-12.956,22.84-25.201,28.006c-4.277,1.805-8.083,5.571-12.256,7.92c-7.366,4.146-12.229-4.125-6.715-9.637
	c3.085-3.085,10.42-7.854,14.333-9.762c6.153-3.002,8.319-6.234,11.982-12.254c5.429-8.922,12.265-28.422,2.242-36.658
	c-8.516-6.998-16.148-12.278-21.852-22.148c-6.057-10.48-6.957-22.772-6.556-34.229c0.101-2.882-0.139-8.604,0.868-11.352
	c1.794-4.899,8.257-9.188,10.83-13.761c2.745-4.878,6.379-8.302,10.942-11.441c3.873-2.661,10.607-4.107,11.554-9.175
	c1.501-8.033,0.68-18.924-1.066-26.663c-1.029-4.564-23.923-4.757-28.764-6.441c-10.472-3.644-17.388-9.528-22.641-19.095
	c-2.6-4.74-3.711-7.636-5.048-12.953C34.741,203.888,25.824,198.725,27.937,207.319C28.226,208.493,27.373,205.026,27.937,207.319z
	 M436.281,491.004c11.492,1.381,20.91,6.339,32.187,0.546c10.791-5.52,17.188-17.934,14.381-29.713
	c-2.561-10.745-2.597-19.997-1.286-30.843c0.753-6.26,0.728-13.463,0.905-19.848c0.105-3.812-2.727-6.675-3.087-10.43
	c-0.297-3.078,1.6-6.959-0.274-9.819c4.602-9.831,0.299-24.882-1.084-34.958c-0.971-7.066,0.297-14.323-0.551-21.508
	c-0.832-7.021-1.439-14.228-1.911-21.275c-0.834-12.67,0.421-27.112-4.091-39.28c-2.074-5.596-5.14-10.898-6.002-16.912
	c-0.958-6.72-0.441-12.535-2.727-19.094c-3.624-10.436-8.038-18.761-15.549-27.005c-3.89-4.265-8.456-6.651-14.303-7.748
	c-5.049-0.947-6.136,9.936-5.694,13.596c3.769,31.251-0.629,63.161,2.288,94.229c1.606,17.114,0.253,34.875,0.253,52.06
	c0,9.36-0.299,18.777,0.111,28.131c0.292,6.638-2.185,12.249-2.079,18.887c0.212,13.449,6.553,25.76,4.693,39.252
	c-1.157,8.432-2.181,15.552-2.181,24.277c0,4.247-0.257,8.5,0.04,12.744C430.753,492.456,431.593,490.45,436.281,491.004
	C437.37,491.135,434.479,490.791,436.281,491.004z M403.004,214.684c-8.924-0.978-19.419,13.556-24.823,19.093
	c-1.584,1.624-5.003,2.528-5.729,4.911c-0.851,2.792,0.359,5.28-0.889,8.182c-2.948,6.858-2.259,15.447-2.384,22.641
	c-0.224,13.056-4.342,25.468-4.215,38.32c0.067,6.702,2.952,13.235,3.123,19.509c0.182,6.305-3.07,12.565-2.145,19.082
	c0.83,5.841-0.226,11.151-0.31,16.925c-0.073,5.086,1.374,14.077-1.691,18.252c-3.783,5.155-4.389,16.715-4.404,23.034
	c-0.021,8.528,0.907,17.143-0.104,25.644c-0.786,6.606-4.851,14.292-3.252,20.998c1.971,8.268,0.475,17.512,0.282,25.912
	c-0.307,13.451,2.896,7.903,12.022,12.351c4.477,2.182,13.104,2.111,18.15,2.561c6.392,0.562,12.221,0.009,18.518,0.38
	c8.147,0.481,4.913-12.464,6.05-17.943c1.455-7.014,1.614-14.605,1.073-21.718c-0.46-6.208,1.353-11.417,1.91-17.457
	c1.202-13-2.134-25.924-2.455-38.462c-0.156-6.368,2.46-12.396,2.06-19.132c-0.503-8.44,1.815-16.602,1.817-25.032
	c0.001-6.333-4.659-10.048-4.968-15.573c-0.295-5.31,1.829-11.247,1.908-16.64c0.221-13.678,1.481-27.144,2.153-40.896
	c0.756-15.471-1.047-31.221-0.581-46.95c0.11-3.707,0.903-15-2.164-17.882C407.072,210.205,410.996,209.59,403.004,214.684
	C401.778,214.55,405.169,213.304,403.004,214.684z M158.869,417.356c10.666-7.066,16.719-20.252,17.678-32.375
	c0.434-5.48,3.018-12.437,1.754-17.744c-1.868-7.845,0.846-16.04-1.482-23.931c-1.012-3.43-0.196-10.542,1.316-13.76
	c2.596-5.523-1.979-10.386-1.537-15.846c0.366-4.41,0.588-9.037,1.531-13.646c0.631-3.086,0.042-5.431-0.368-8.456
	c-0.445-3.272,1.816-5.304,1.538-8.562c-0.431-5.035-2.191-10.815-1.839-15.743c0.4-5.604,1.729-10.756,1.321-16.331
	c-0.465-6.4,1.697-12.843,1.091-19.095c-0.231-2.432-0.198-18.633-4.962-8.125c-4.831,10.655-19.046,15.702-29.407,19.583
	c-7.574,2.834-13.466,0.474-21.052,1.187c-11.818,1.109-14.829,2.629-13.975,14.912c0.416,5.983-2.581,11.783-2.667,17.914
	c-0.091,6.458-0.839,11.473,0.051,17.814c1.456,10.319,3.741,26.069-2.455,35.188c-14.624,3.34-10.366-13.935-10.049-23.367
	c0.104-3.108,1.469-12.422-3.044-13.456c-4.347-0.997-11.425,7.996-13.929,11.189c-4.221,5.382-3.875,13.464-2.982,19.906
	c-2.848,3.424-2.406,14.029,0.874,16.926c5.01,4.424,6.295,10.738,10.31,16.08c4.138,5.506,11.608,11.471,17.552,15.034
	c9.827,5.893,21.298,9.893,31.002,16.335c5.667,3.766,9.264,9.278,11.433,15.578C148.434,409.975,152,421.896,158.869,417.356
	C160.126,416.523,157.464,418.285,158.869,417.356z M197.33,225.868c-5.122,1.502-3.798,10.345-1.862,13.688
	c2.88,4.974,15.866,3.598,18.503-0.594c1.747-2.786,9.063-15.095,0.064-13.215C208.708,226.858,202.8,224.25,197.33,225.868
	C191.866,227.471,197.498,225.818,197.33,225.868z M323.626,304.154c-4.671,2.05-9.997,0.864-14.731,2.182
	c-5.728,1.593-4.363,8.861-4.363,13.094c0,11.361,3.408,17.703,13.092,24.277c7.246,4.905,17.752,7.812,21.277,16.639
	c3.544,8.852,3.796,20.275-0.346,29.05c-4.188,8.873-16.971,13.727-26.245,11.395c-5.634-1.416-9.026-6.158-13.873-0.278
	c-2.978,3.612-3.906,9.889-6.196,14.231c-2.555,4.846-7.696,7.614-9.531,13.251c-2.073,6.373-0.352,10.291,1.796,16.28
	c2.922,8.149,11.033,20.134,17.299,26c5.953,5.582,12.872,12.626,20.413,15.918c9.04,3.946,22.652,5.11,22.3-6.996
	c-0.348-11.931-0.557-23.908,0.11-35.717c0.775-13.702-0.022-28.128,1.637-41.672c1.501-12.19,3.341-23.297,3.711-35.779
	c0.42-14.201,2.608-31.284,0.384-45.235c-0.937-5.806-1.622-10.146-1.381-16.308c0.136-3.463-1.244-9.492-4.083-11.78
	C335.807,285.377,331.313,300.79,323.626,304.154C323.283,304.305,325.835,303.188,323.626,304.154z M213.151,291.333
	c-3.862-2.324-14.423-1.075-18.822-0.545c-6.635,0.798-3.284,13.42-1.909,16.911C198.079,322.076,224.83,298.365,213.151,291.333
	C211.494,290.336,215.587,292.8,213.151,291.333z M304.259,350.254c-8.367-5.55-8.743-9.409-10.093-19.368
	c-0.654-4.819-1.898-9.138-2.833-13.88c-1.527-7.742-4.349-6.478-11.353-6.033c-9.051,0.583-16.264-1.551-16.176,9.702
	c0.074,9.601,4.688,18.935-1.387,27.806c-6.768,9.883-18.667,5.509-25.562,12.314c-5.707,5.632-7.815,10.838-8.701,19.19
	c-1.122,10.526,3.94,16.199,13.366,15.821c11.424-0.454,16.748-4.927,17.537-16.694c0.314-4.692-0.108-9.387,5.742-10.598
	c7.675-1.589,5.626,10.437,5.634,14.743c0.011,4.898,0.197,10.237,1.526,14.979c1.094,3.9-0.433,9.934,2.198,13.23
	c4.591,5.753,10.368-10.821,11.005-13.206c1.449-5.403,2.044-26.309,6.262-28.205c14.345-6.449,7.862,9.214,14.134,13.272
	c6.089,3.94,14.006,9.113,21.256,5.044c8.712-4.89,4.958-16.036,0.033-22.156c-3.61-4.488-7.388-6.876-12.626-9.149
	C310.297,355.362,307.981,352.722,304.259,350.254C303.125,349.502,306.178,351.526,304.259,350.254z M90.402,78.842
	c0,8.447-0.54,22.942-10.834,25.896c-10.453,2.999-5.336-14.579-6.021-19.183c-1.33-8.945,0.141-18.363,0.496-27.27
	c0.181-4.525-0.561-11.893-3-15.8c-3.536-5.665-7.48,0.484-8.103,4.088c-1.393,8.066,7.294,62.365-4.998,61.728
	c-9.032-0.465-10.071-18.97-9.937-25.207c0.08-3.738-0.932-29.761-8.282-16.861c-4.869,8.546-1.322,20.125-0.058,28.974
	c1.351,9.441,4.418,19.604,15.248,22.633c12.303,3.441,9.302,12.068,9.302,23.072c0,3.857-0.614,16.265,7.638,12.669
	c2.759-1.202,2.207-8.882,2.576-11.475c0.645-4.527-3.65-22.724,2.103-23.709c5.982-1.025,7.071-0.757,11.543-5.319
	c3.407-3.475,5.97-7.355,7.782-11.869c2.878-7.176,4.995-15.295,4.637-23.186c-0.131-2.875-1.532-10.161-4.637-11.457
	C88.442,63.475,90.402,75.24,90.402,78.842C90.402,82.602,90.402,75.154,90.402,78.842z M167.871,110.211
	c4.665-11.729,6.051-21.184,6.819-33.824c0.304-5.054,1.336-10.563-0.545-15.275c-2.162-5.411-8.42-2.815-9.274,1.909
	c-2.17,11.996,2.299,24.005-1.637,35.734c-1.507,4.488-3.092,4.97-7.208,7.563c-6.524,4.11-6.468-6.092-6.636-9.404
	c-0.291-5.732-0.181-11.488-0.003-17.222c0.156-5.04-1.798-8.734-1.933-13.665c-0.134-4.915,3.326-28.485-8.201-25.496
	c-6.032,1.564-0.563,22.453-0.771,26.879c-0.286,6.122,1.995,11.231,1.963,17.149c-0.024,4.552,2.361,16.747,0.693,20.469
	c-4.345,9.707-15.71-9.055-16.912-11.729c-4.034-8.984,3.967-25.673-4.092-32.188c-11.146,0.732-7.904,19.479-7.092,27.004
	c0.358,3.318,0.935,10.435,2.675,13.285c1.025,1.679,0.629,3.365,1.417,4.991c1.191,2.465,3.789,3.016,4.637,5.881
	c2.827,9.553,17.853,6.287,19.008,12.332c1.223,6.401-3.348,23.406,4.022,26.315c12.486,4.928,6.757-15.725,6.691-22.03
	C151.363,116.491,163.822,120.402,167.871,110.211C168.297,109.139,167.234,111.813,167.871,110.211z M120.953,184.406
	c-4.805,3.137-13.892,0.279-19.474,1.229c-2.174,0.663-4.142,0.35-5.902-0.938c-2.915-1.821-3.711,0.478-6.538,0.799
	c-5.222,0.595-10.298-2.078-14.852,2.107c-7.449,6.848,4.204,7.638,8.305,7.986c10.007,0.846,19.977,4.344,30.005,3.818
	c4.275-0.223,10.565,0.398,13.989-2.821C133.73,189.775,127.311,185.898,120.953,184.406
	C116.972,187.004,122.975,184.88,120.953,184.406z"/>
</svg>
