<?xml version="1.0" encoding="utf-8"?>
<!-- Generator: Adobe Illustrator 15.0.2, SVG Export Plug-In . SVG Version: 6.00 Build 0)  -->
<!DOCTYPE svg PUBLIC "-//W3C//DTD SVG 1.1//EN" "http://www.w3.org/Graphics/SVG/1.1/DTD/svg11.dtd">
<svg version="1.1" id="Ebene_1" xmlns="http://www.w3.org/2000/svg" xmlns:xlink="http://www.w3.org/1999/xlink" x="0px" y="0px"
	 width="512px" height="512px" viewBox="0 0 512 512" enable-background="new 0 0 512 512" xml:space="preserve">
<path d="M257.54,64C92.994,64,0,173.352,0,253.347c0,121.887,109.354,190.477,200.308,212.956
	C291.27,488.791,325.48,447.538,324.022,400c-1.771-57.75,27.072-58.496,47.52-56.459C391.973,345.592,512,373.305,512,281.326
	C512,167.5,422.072,64,257.54,64z M224,96c17.673,0,32,14.327,32,32s-14.327,32-32,32s-32-14.327-32-32S206.327,96,224,96z
	 M80,288.246c-8.973,0-16.246-7.273-16.246-16.246S71.027,255.754,80,255.754S96.246,263.027,96.246,272S88.973,288.246,80,288.246z
	 M128,224c-17.673,0-32-14.327-32-32s14.327-32,32-32s32,14.327,32,32S145.673,224,128,224z M256,352c-35.346,0-64-21.49-64-48
	s28.654-48,64-48c35.348,0,64,21.49,64,48S291.348,352,256,352z M368,224c-26.51,0-48-21.49-48-48s21.49-48,48-48s48,21.49,48,48
	S394.51,224,368,224z"/>
</svg>
