<?xml version="1.0" encoding="iso-8859-1"?>
<!-- Generator: Adobe Illustrator 16.0.0, SVG Export Plug-In . SVG Version: 6.00 Build 0)  -->
<!DOCTYPE svg PUBLIC "-//W3C//DTD SVG 1.1//EN" "http://www.w3.org/Graphics/SVG/1.1/DTD/svg11.dtd">
<svg version="1.1" id="Capa_1" xmlns="http://www.w3.org/2000/svg" xmlns:xlink="http://www.w3.org/1999/xlink" x="0px" y="0px"
	 width="28.804px" height="24.26px" viewBox="0 0 28.804 24.26" style="enable-background:new 0 0 28.804 24.26;"
	 xml:space="preserve">
<path style="fill:#000000;" d="M23.798,6.488C23.697,2.889,20.748,0,17.123,0c-3.424,0-6.244,2.576-6.635,5.893
	c-0.58-0.363-1.267-0.576-2.003-0.576c-2.088,0-3.777,1.691-3.777,3.777c0,0.158,0.029,0-0.65,0C1.816,9.094,0,10.912,0,13.15
	c0,2.041,1.51,3.73,3.471,4.016c0.154,0.027,0.312,0.043,0.475,0.043h19.144c0.068,0,0.09-0.008,0.092-0.014
	c0.086,0.004,0.17,0.014,0.254,0.014c2.967,0,5.369-2.406,5.369-5.371C28.804,8.994,26.595,6.674,23.798,6.488z"/>
<polygon style="fill:#000000;" points="9.195,20.977 10.771,21.336 8.83,24.26 14.138,21.031 12.564,20.672 14.404,17.721 "/>
<polygon style="fill:#000000;" points="15.791,19.822 16.699,20.027 15.58,21.723 18.648,19.854 17.736,19.646 18.8,17.941 "/>
<g>
</g>
<g>
</g>
<g>
</g>
<g>
</g>
<g>
</g>
<g>
</g>
<g>
</g>
<g>
</g>
<g>
</g>
<g>
</g>
<g>
</g>
<g>
</g>
<g>
</g>
<g>
</g>
<g>
</g>
</svg>
