<?xml version="1.0" standalone="no"?>
<!DOCTYPE svg PUBLIC "-//W3C//DTD SVG 1.1//EN" "http://www.w3.org/Graphics/SVG/1.1/DTD/svg11.dtd" >
<svg xmlns="http://www.w3.org/2000/svg">
<metadata>
Created by FontForge 20120731 at Sun Sep 21 18:48:39 2014
 By Stefan Imhoff
Created by Stefan Imhoff with FontForge 2.0 (http://fontforge.sf.net)
</metadata>
<defs>
<font id="iconfont" horiz-adv-x="512" >
  <font-face 
    font-family="iconfont"
    font-weight="500"
    font-stretch="normal"
    units-per-em="512"
    panose-1="2 0 6 3 0 0 0 0 0 0"
    ascent="448"
    descent="-64"
    bbox="-0.5 -64 512.5 448"
    underline-thickness="25"
    underline-position="-52"
    unicode-range="U+002D-F117"
  />
<missing-glyph horiz-adv-x="187" 
d="M17 0v341h136v-341h-136zM34 17h102v307h-102v-307z" />
    <glyph glyph-name="arrow-left" unicode="arrow&#x2d;left" horiz-adv-x="352" 
d="M256 -64l-256 256l256 256l96 -96l-160 -160l160 -160z" />
    <glyph glyph-name="arrow-right" unicode="arrow&#x2d;right" horiz-adv-x="352" 
d="M96 448l256 -256l-256 -256l-96 96l160 160l-160 160z" />
    <glyph glyph-name="calendar" unicode="calendar" horiz-adv-x="480" 
d="M160 256h64v-64h-64v64zM256 256h64v-64h-64v64zM352 256h64v-64h-64v64zM64 64h64v-64h-64v64zM160 64h64v-64h-64v64zM256 64h64v-64h-64v64zM160 160h64v-64h-64v64zM256 160h64v-64h-64v64zM352 160h64v-64h-64v64zM64 160h64v-64h-64v64zM416 448h64v-512h-480v512
h64v-32h64v32h224v-32h64v32zM448 -32v352h-416v-352h416z" />
    <glyph glyph-name="cc" unicode="cc" horiz-adv-x="511" 
d="M255 448q108 0 183 -75q73 -73 73 -181q0 -109 -73 -180q-76 -76 -183 -76q-104 0 -180 76q-75 75 -75 180q0 104 76 182q74 74 179 74zM256 402q-88 0 -147 -61q-63 -65 -63 -149t63 -147q62 -62 147 -62q87 0 149 62q60 60 60 147q0 88 -60 148q-62 62 -149 62z
M253 235l-34 -18q-9 20 -29 20q-34 0 -34 -45t34 -45q23 0 32 22l32 -16q-23 -40 -68 -40q-34 0 -55 20.5t-21 58.5q0 36 21 57.5t54 21.5q49 0 68 -36zM400 235l-34 -18q-9 20 -28 20q-34 0 -34 -45t34 -45q22 0 31 22l32 -16q-23 -40 -67 -40q-34 0 -55 20.5t-21 58.5
q0 36 21 57.5t54 21.5q48 0 67 -36z" />
    <glyph glyph-name="close" unicode="close" 
d="M507 37q2 -2 4 -6q3 -10 -4 -17l-73 -73q-7 -7 -17 -4q-4 2 -6 4l-155 155l-155 -155q-2 -2 -6 -4q-10 -3 -17 4l-73 73q-7 7 -4 17q2 4 4 6l155 155l-155 155q-2 2 -4 6q-3 10 4 17l73 73q7 7 17 4q4 -2 6 -4l155 -155l155 155q2 2 6 4q10 3 17 -4l73 -73q7 -7 4 -17
q-2 -4 -4 -6l-155 -155z" />
    <glyph glyph-name="download" unicode="download" 
d="M400 256l-144 -128l-144 128h112v128h64v-128h112zM372 182q63 -12 101.5 -35.5t38.5 -50.5q0 -40 -75 -68t-181 -28t-181 28t-75 68q0 27 38.5 50.5t101.5 35.5l17 -15q-42 -8 -67.5 -23t-25.5 -32q0 -26 56.5 -45t135.5 -19t135.5 19t56.5 45q0 17 -25.5 32t-67.5 23z
" />
    <glyph glyph-name="external" unicode="external" horiz-adv-x="448" 
d="M320 160l64 64v-256h-384v384h256l-64 -64h-128v-256h256v128zM448 416v-176l-65 65l-178 -177h-45v45l177 178l-65 65h176z" />
    <glyph glyph-name="facebook" unicode="facebook" 
d="M427 448q35 0 60 -25t25 -60v-342q0 -35 -25 -60t-60 -25h-342q-35 0 -60 25t-25 60v342q0 35 25 60t60 25h342zM435 192l13 73h-96v40q0 17 4.5 24.5t19.5 7.5h72v79h-88q-104 0 -104 -103v-48h-46v-73h46v-224h96v224h83z" />
    <glyph glyph-name="feed" unicode="feed" 
d="M427 448q35 0 60 -25t25 -60v-342q0 -35 -25 -60t-60 -25h-342q-35 0 -60 25t-25 60v342q0 35 25 60t60 25h342zM139 32q18 0 31 13t13 31t-13 30.5t-31 12.5t-30.5 -12.5t-12.5 -30.5t12.5 -31t30.5 -13zM249 32h63q0 89 -63.5 152.5t-152.5 63.5v-63q63 0 108 -45
t45 -108zM360 32h63q0 135 -96 231t-231 96v-63q109 0 186.5 -77.5t77.5 -186.5z" />
    <glyph glyph-name="flickr" unicode="flickr" 
d="M400 240q-26 0 -45 -19t-19 -45t19 -45t45 -19t45 19t19 45t-19 45t-45 19zM400 288q46 0 79 -33t33 -79t-33 -79t-79 -33t-79 33t-33 79t33 79t79 33zM0 176q0 46 33 79t79 33t79 -33t33 -79t-33 -79t-79 -33t-79 33t-33 79z" />
    <glyph glyph-name="folder" unicode="folder" 
d="M492 320q10 0 16 -7t4 -17l-59 -272q-2 -10 -10.5 -17t-18.5 -7h-336q-10 0 -18.5 7t-10.5 17l-59 272q-2 10 4 17t16 7h472zM448 360v-24h-384v56q0 10 7 17t17 7h104l16 -32h216q10 0 17 -7t7 -17z" />
    <glyph glyph-name="github" unicode="github" 
d="M256 448q106 0 181 -75t75 -181t-75 -181t-181 -75t-181 75t-75 181t75 181t181 75zM408 40q30 30 46 68q17 40 17 84t-17 84q-16 38 -46 68t-68 46q-40 17 -84 17t-84 -17q-38 -16 -68 -46t-46 -68q-17 -40 -17 -84t17 -84q16 -38 46 -68t68 -46q13 -5 23 -8v39
q0 32 20 45q-22 2 -24 3q-18 5 -23 7q-16 6 -22 10q-9 6 -18 15t-15 21t-9 29q-4 22 -4 36q0 40 25 66q-11 28 3 65q1 1 2 1h8q2 0 6.5 -1.5t6.5 -1.5q5 -1 19 -8t26 -15q30 9 61 9q32 0 62 -9q20 15 38 21q14 5 23 5l6 -1q14 -37 3 -65q25 -26 25 -66q0 -19 -3 -36
q-3 -14 -10 -29q-6 -12 -15 -21t-18 -15q-6 -4 -22 -10q-5 -2 -23 -7q-2 -1 -24 -3q21 -15 21 -45v-38q11 3 20 7q38 16 68 46z" />
    <glyph glyph-name="google-plus" unicode="google&#x2d;plus" 
d="M0 13v4v-4zM118 165q-34 1 -63 34t-35 78t14 75.5t55 29.5t63.5 -33t34.5 -77t-14 -76.5t-55 -30.5zM512 320h-96v96h-32v-96h-96v-32h96v-96h32v96h96v-267q0 -35 -25 -60t-60 -25h-154q3 12 3 24q0 39 -14 65t-49 51q-15 10 -31 27.5t-16 28.5q0 15 7 25t28 26
q50 38 50 93q0 35 -15 63.5t-42 38.5h56l40 34h-179q-59 0 -111 -47q1 34 25.5 58.5t59.5 24.5h342q35 0 60 -25t25 -60v-43zM93 65q-51 0 -93 -20v101v33q37 -32 92 -32q3 0 9 0.5t8 0.5q-9 -18 -9 -33q0 -28 24 -50h-31zM2 4q-2 6 -2 9q0 -3 2 -9zM228 -28q2 -12 2 -19
q0 -11 -1 -17h-144q-31 0 -54 19.5t-29 48.5q39 44 110 44q20 0 44 -7q6 -4 17.5 -12t16.5 -11.5t13 -10t11.5 -11t7.5 -11t6 -13.5z" />
    <glyph glyph-name="linkedin" unicode="linkedin" 
d="M426 448q35 0 60.5 -25.5t25.5 -60.5v-340q0 -35 -25.5 -60.5t-60.5 -25.5h-340q-35 0 -60.5 25.5t-25.5 60.5v340q0 35 25.5 60.5t60.5 25.5h340zM192 32v224h-64v-224h64zM160 288q14 0 23 9t9 23t-9 23t-23 9t-23 -9t-9 -23t9 -23t23 -9zM416 32v144q0 33 -21 56.5
t-51 23.5q-27 0 -56 -40v40h-64v-224h64v128q0 14 9 23t23 9t23 -9t9 -23v-128h64z" />
    <glyph glyph-name="logo" unicode="logo" horiz-adv-x="502" 
d="M487 428q0 -1 -2 -1.5t-1 -2.5q1 -3 6 -5q4 -3 6 -11q1 -2 1 -6t1 -7l2 -2q2 -3 1 -4q-1 0 -1 2l1 -5v-17v-20q0 -7 -1 -10v-8v-7q-1 -2 0 -6.5t1 -5.5q0 -2 -1 -5t-1 -5t-1 -7t-1 -7q-1 -4 0 -12.5t1 -11.5q0 -4 -1.5 -13t-1.5 -13v-11v-13v-10v-21q0 -5 -2 -14t-2 -11
q-1 -5 2 -23q1 -7 1 -22v-18v-22v-18q0 -3 -1 -10t-1 -11t1 -12t1 -12v-25q-3 -3 -1 -8q-1 -2 -1 -5q0 -1 -1.5 -3t-2.5 -3q-5 -12 -11 -12q-2 -3 -18 -11q-3 -2 -11 -1.5t-11 0.5h-26q-4 0 -16 1t-18 0q-6 0 -18 2t-19 1h-19h-24l-18 -3q-21 3 -22 3q-7 -1 -23 -1
q-3 0 -9 -2q-2 -1 -4 1l-3 2q-16 0 -18 -1q-1 -3 -12 -1t-12 2q-27 0 -39 -2q-3 -1 -19 2q-4 1 -22 -2q-7 -1 -22 -1q-2 0 -7 -0.5t-8 -0.5q-16 0 -19 5q-1 2 -9 4t-10 5q-9 14 -12 27q-2 5 -1 21t1 21q0 3 1 9t1 8q0 13 -1 20q0 5 -1 14t-1.5 16t-0.5 14q2 37 2 44
q-1 12 1 38l-3 85q0 4 1 22t-2 22q-1 3 -4 4q-2 0 0 3l1 3q0 4 -1.5 12t-0.5 12q1 5 0 15.5t-1 15.5q2 24 9 36q3 5 9 10q4 3 10.5 5t9.5 4q2 1 13.5 0t11.5 3q9 4 39 -1q11 -2 17 -1h12q5 -1 16 -1q3 0 8.5 -1t8.5 -1q4 0 10.5 1t9.5 1h20q3 1 36 -2q3 -1 9.5 -1t10.5 -1
t11.5 0t9.5 1q3 0 7 0.5t7 0.5q2 0 9 -1t11 0q7 1 19.5 1h19.5q5 0 17 -1t18 0q6 0 17 1t17 2q23 2 34 1q10 -2 14 -2q13 0 16 -8zM174 241q0 3 0.5 10t0.5 11t0.5 11t0.5 11q0 20 1 22q1 3 1 8q0 7 1 12q5 20 14 32q4 5 9 9t15 8t12 5q3 2 9.5 2.5t8 3t0.5 9.5q0 3 -1 6
t-2.5 6.5t-2.5 5.5q-1 5 -12 6q-7 1 -21 0t-21 0q-3 0 -9 -1t-9 1q-5 -1 -12.5 0t-10.5 1t-9.5 -1t-9.5 -1q-2 0 -5.5 1.5t-5.5 0.5q-8 0 -9 1q-2 1 -7 0.5t-7 0.5q-5 3 -24 0q-30 -5 -35 -10q-16 -14 -12 -28q1 -3 -4 -18q-1 -3 -0.5 -6.5t1 -8.5t0.5 -7q0 -3 -1 -9t0 -9
q1 -4 4 -24q1 -8 0 -21.5t-1 -18.5q0 -6 0.5 -7.5t5.5 0.5q4 3 8 -1t5 -9q9 -31 37 -31q6 0 8 3.5t-0.5 6.5t-8.5 3q-22 9 -24 13q-4 7 -5 16.5t3.5 17.5t14.5 9q2 0 5.5 1.5t6.5 1.5h17q16 0 29 -3t23.5 -13.5t4.5 -22.5q-1 -1 -2 -4.5t-3 -4.5q-2 -2 -6.5 -4t-6.5 -3
q-4 -3 -16 -3t-16 -4v-5.5t2 -4.5q3 -1 14 1q22 2 25 4q18 9 20 14q3 7 4 7q1 1 3 -1q5 -4 5 2zM456 419q-8 3 -13 3q-2 0 -6 -1t-6 -1t-5 1q-3 2 -5 -1t-2 -6q0 -2 1 -9t0 -12q-1 -8 1 -36v-50q15 -3 27 16q9 13 15 31q9 25 10 41q0 1 1 6t0.5 8.5t-2.5 4.5l-4 2t-3.5 1
t-4 0.5t-4.5 1.5zM399 420q-1 0 -4 -3h-10q-15 0 -15 -4q1 -5 -2 -14t-3 -13q0 -20 3 -29q5 -13 5 -16q0 -4 4 -10t4 -7q1 -4 4.5 -6.5t8.5 -4.5t7 -4q6 -4 6 6q0 2 -1 7v3v22q0 7 -1 21t-1 21q0 31 -5 31zM364 322q-1 5 -4 13t-5 15t-2 14l-1 20q0 20 1 20q0 15 -6 15
q-12 0 -17 -1q-15 0 -15 -4t3 -7q1 -2 2 -5.5t2 -5.5t5.5 -5t5.5 -5q6 -12 6 -17t-3.5 -11.5t-4.5 -9.5t6 -10q11 -8 13 -12q1 -2 2 -5.5t0.5 -6t-4.5 -2.5q-5 0 -9.5 4t-8.5 10.5t-5 8.5q-10 10 -13 1q-1 -4 4 -9.5t5 -6.5q1 -4 10 -17q2 -3 0 -6.5t-6 -0.5q-8 6 -10 9
q-5 9 -10 16q-5 6 -12.5 5.5t-12.5 -6.5q-2 -4 -1 -6t3 -5.5t2 -5.5q0 -1 1 -3.5t1 -3.5q0 -2 -2 -4q-1 -2 -1 -3q-1 -3 -3.5 -8.5t-4.5 -8.5q-1 -1 -2 -3q-6 -8 1 -8q3 0 10 1.5t10 1.5h21q16 0 13 -9q-4 -9 -12 -8h-18q-2 -1 -5.5 -0.5t-4 -1t-0.5 -7.5q0 -13 4 -13
q7 -1 23 -1q13 0 14 -4q1 -5 -3 -7t-9 -1q-6 1 -19.5 -0.5t-19.5 0.5q-3 1 -20 -2t-19 3q-6 8 12 9q5 1 14 1h6q6 3 3 13q-2 8 -2 10q0 5 -8 3q-2 -1 -4.5 0.5t-3.5 1.5t-3.5 -1t-3.5 -1q-3 -1 -7.5 1.5t-4.5 6.5q0 5 5 7t9 0q9 -3 15 6q7 10 7 19q0 4 -3.5 10.5t-3.5 9.5
v4.5v4.5t-1.5 4t-3.5 3q-4 2 -5.5 7t-2.5 6q-2 2 -2 9v8q-3 10 -12 10q-8 0 -18 -5q-13 -6 -14 -8q-8 -12 -7 -15q0 -2 -4 -7t-3 -8q0 -1 -0.5 -6t-0.5 -8.5t2 -4.5q4 -2 11.5 -2h9.5t13.5 0.5t20 -0.5t8.5 -5q0 -3 -1.5 -4.5t-3 -2t-5 0t-4.5 0.5q-6 0 -8 -11
q-4 -22 -23 -22q-4 0 -10 0.5t-10 0.5q-5 0 -5 -10q2 -14 8 -16q12 -2 19 -1q15 3 22 -3q1 -4 -3 -7t-6 -2t-3.5 0t-2.5 -6q-2 -12 -11 -15q-2 0 -8.5 -0.5t-9.5 -1.5q-4 -1 -4.5 -4.5t0 -9t0.5 -7.5q0 -1 -1 -4t-1 -5h10h25q8 1 9 -7q-1 -2 -5.5 -2t-5.5 -3q-1 -2 -1 -7
t-3 -8t-16 -9q-2 -1 -6 -1t-6 -1.5t-2 -5.5q0 -3 1.5 -10t0.5 -10q-3 -19 -2 -23q1 -8 -3 -24q-1 -4 -1.5 -10.5t-2 -10.5t-6.5 -9q-8 -8 -15 -11q-4 -2 -5.5 -4t-1.5 -5.5t-1 -6.5t-4.5 -7t-4.5 -6t-5 -4.5t-5 -4.5q-2 -3 -7 -5t-7 -4q-3 -4 0 -6.5t7 -1.5q7 2 33 2
q5 0 15.5 -0.5t16.5 -0.5h21h18q19 0 22 1t10.5 -1t11.5 0q2 1 12 0q12 -2 13 1q0 2 -2 6q-2 3 -7 6.5t-6 5.5t-6.5 8t-7.5 10q-6 16 -8 24q-1 2 -2 9.5t-3 10.5q-1 2 -3 2t-5.5 -1t-4.5 -1q-16 0 -22 4q-12 8 -8 33q1 6 4.5 10t6 5.5t10 4t9.5 3.5q3 1 4.5 4t1.5 8.5v6.5
q2 7 1 10q0 1 -1 2.5t-1 2.5q0 2 -5 4t-6 5q-1 2 1 3t5 1.5t6 0t5.5 -1t3.5 -0.5q25 -3 49 6q13 5 7 12q-4 6 -36 2q-12 -2 -20 1q-3 2 -11 1t-10 4q-3 8 28 7q5 -1 15 1q3 1 9.5 0t9.5 0l5 1q6 0 7 2t-0.5 3t-4.5 1l-3 1q-5 3 -11 3.5t-13 0t-11 -0.5q-3 0 -18 -1t-17 2
q-2 1 -2 4.5t3 4.5h12q5 0 30 2h18q3 0 8 -1.5t7 -1.5q19 -5 23 -21q2 -6 8 -8q8 -3 7 9v1.5v1.5q0 12 7 29q8 15 22 25q20 14 31 20q3 2 3 16q0 18 -3 20q-3 1 -9 2t-11 3t-7 5q-1 2 -7 7.5t-7 10.5zM311 382q-3 4 -5 13.5t-4 13.5q-1 3 -3 5t-5 2.5t-5 0.5h-6.5h-6.5h-18
q-2 -1 -1.5 -3t1.5 -5.5t1 -4.5q0 -4 4.5 -14t3.5 -15q-1 -3 -1 -7.5v-6.5q0 -3 1 -9t1 -9q5 -4 7.5 -4t9 2.5t8.5 2.5q1 0 5 1t6 1q2 1 5.5 3.5t5.5 3.5q7 3 7 14q0 7 -2 10q-7 2 -9 5zM500 380q1 1 0.5 2t-1.5 1q0 -2 1 -3zM482 356q-2 0 -4 -5t-3.5 -11t-2.5 -7
q-8 -15 -16 -25q-14 -14 -25 -14q-4 0 -6 -1t-3 -3.5t-1 -3.5v-5v-5q0 -11 11 -13q17 -2 23 -15q10 -20 12 -31q3 -14 4 -15t3 -6.5t4 -6.5v19q-3 16 0 20q2 2 0 7q0 1 2 10q1 7 1 21v29q0 20 2 25q1 2 -1 3q-1 2 -1 3q0 4 3 13q1 1 0.5 9t-2.5 8zM190 276q0 -3 1.5 -5.5
t4.5 -3.5t6 -1t7 -0.5t5 -0.5q3 0 5.5 1t3.5 3t1.5 4t1.5 5.5t1 4.5q-6 8 -16 9h-16q-5 -2 -5 -16zM61 260q-2 -14 10 -16q12 -9 29 -8q1 0 7 0.5t10.5 1.5t10 2.5t8 4t1.5 5.5q-3 11 -9 16q-13 11 -24 11q-9 0 -25 -2t-18 -15zM23 241q3 -13 1 -40q-2 -37 -2 -44
q0 -3 0.5 -11t0.5 -12v-20q0 -39 1 -44q2 -4 1 -19t-1 -20q0 -7 -0.5 -21t0.5 -22q1 -11 7.5 -19t16.5 -7q4 -2 21 -2q9 0 10 1h15q2 1 6 4.5t6 4.5q3 2 8.5 5.5t7.5 5.5q3 2 6 7t5 7q6 5 3 17q-2 15 -14 30q-6 7 -15 11q-6 2 -7 1t-1 -6.5t-1 -7.5q-12 -23 -25 -28
q-2 -1 -6 -4t-6 -4q-5 -3 -8 1t1 8q6 6 14 10q6 3 12 12q15 27 2 37q-15 11 -21 22q-7 12 -7 34q0 9 1 12t5.5 7t5.5 6q5 8 11 12q11 8 11 9q3 12 -1 27q0 2 -6.5 3t-13.5 1.5t-9 1.5q-16 6 -22 19q-4 6 -5 13t-7 7q-2 0 -1 -5zM431 -43q3 0 10.5 -2t10.5 -1.5t11 2.5
q20 11 15 30q-4 13 -2 31q1 6 1 20q0 2 -1.5 5t-1.5 5v10q2 4 -1 35q-1 4 -1 11v11q-2 14 -2 21q-3 36 -4 39q0 1 -2.5 7t-3.5 10q-2 17 -3 19q-8 20 -15 27t-14 8q-6 1 -6 -14q2 -16 1.5 -47t0.5 -47q1 -8 1 -16.5t-0.5 -19t-0.5 -16.5q0 -5 0.5 -14.5t0.5 -13.5
q0 -3 -1.5 -9t-1.5 -10q0 -5 3 -18.5t2 -20.5q-2 -16 -2 -25v-12q0 -4 3 -5h3zM398 233q-8 1 -25 -19q-1 -1 -3 -2.5t-3 -2.5q-1 -2 -1 -4.5v-3.5q-2 -5 -2 -23q0 -6 -2 -19t-2 -19q0 -4 1.5 -10t1.5 -9q0 -2 -1.5 -8.5t-0.5 -10.5q1 -3 0 -9t-1 -8q0 -18 -1 -19
q-5 -6 -5 -23v-25q0 -2 -1.5 -7t-2 -7t0.5 -7v-26q0 -5 1 -7t1.5 -2.5t4 -1.5t5.5 -2q4 -2 18 -2h19q4 0 5 3t1 8v6q2 14 1 22q0 6 2 18q1 7 -1 19.5t-2 18.5q0 3 1 9t1 10q-1 4 0.5 13t1.5 12t-2.5 8t-2.5 8t1 8t1 8q0 13 2 41v14.5v17.5v15q0 16 -2 18q-4 4 -4 3
q-4 -2 -5 -3zM154 31q15 10 17 32q0 2 1.5 8.5t0.5 9.5q-1 4 -0.5 12t-0.5 12q-1 2 -0.5 6.5t1.5 6.5q2 2 0 8.5t-2 7.5q0 4 2 14q1 2 0 4.5t-1 3.5q0 2 1 5t1 4q0 3 -1 8t-1 8t0.5 8t0.5 8q0 2 1.5 9t0.5 10q0 11 -2 12q-1 0 -3 -4q-4 -9 -30 -19q-4 -1 -7.5 -1.5t-6.5 0
t-7 -0.5q-10 -1 -12.5 -3t-1.5 -11q0 -3 -1.5 -9t-1.5 -9q0 -12 1 -18q3 -27 -3 -35q-4 -1 -6.5 0t-3.5 4t-1 6t0.5 7t0.5 6q0 12 -3 13q-2 1 -14 -11q-5 -7 -3 -20q-2 -2 -1.5 -8.5t2.5 -8.5q3 -2 5.5 -8t4.5 -8q4 -5 18 -15q5 -3 15.5 -8t15.5 -8q7 -5 11 -16
q7 -17 13 -12zM192 222q-3 -1 -3.5 -6.5t1.5 -7.5q2 -4 9.5 -3t9.5 4q7 13 0 13q-2 0 -8.5 0.5t-8.5 -0.5zM318 144q-3 -1 -7.5 -1.5t-6.5 -0.5q-5 -2 -5 -13q0 -16 13 -25q2 -1 5.5 -3t6.5 -3.5t6 -4t4 -5.5q6 -13 -1 -29t-26 -12q-2 0 -4 1t-3.5 1.5t-3 0t-3.5 -2.5
t-3.5 -7.5t-2.5 -6.5q-1 -2 -5 -6t-5 -7q-2 -5 2 -16q5 -14 17 -26q13 -13 21 -16q22 -10 22 7l-1 18q0 18 1 18q0 5 0.5 19t1.5 22q4 24 4 36q0 5 0.5 14t0.5 17t-1 14t-1 17q0 8 -4 11q-5 2 -7.5 0.5t-7 -6t-7.5 -5.5zM208 157q-6 3 -19 0q-7 -1 -2 -17q5 -11 18 1
q9 11 3 16zM299 98q-9 7 -10 19q-1 3 -2 7.5t-1 6.5q-2 6 -8 6h-3q-2 0 -5.5 -0.5t-4.5 -0.5t-3 -1t-3 -3t-1 -5t1 -9t1 -10t-3 -8q-4 -5 -13 -7.5t-12 -5.5q-8 -8 -9 -19q-1 -16 13 -16q17 0 18 17q0 9 5 10q5 -6 6 -14q0 -5 2 -15v-6t2 -7q2 -1 3 -1t2.5 2.5t2.5 4.5t2 5
l1 2q0 1 1 8.5t2 13t3 6.5q8 4 10.5 -4t3.5 -9q14 -9 21 -5q13 7 1 22q-6 6 -13 9q-2 1 -5 3.5t-5 3.5zM85 369q0 15 6 12q4 -1 4 -11q0 -14 -4 -23q-3 -7 -8 -12q-3 -3 -12 -5q-3 0 -3 -5t0.5 -11t0.5 -8q0 -11 -2 -12q-8 -4 -8 13v6v6t-0.5 4.5t-3 4t-5.5 2.5
q-14 4 -16 23q-3 24 0 29q6 10 8 -7l1 -10q0 -25 10 -25q5 0 6 13t0 29.5t-1 18.5q3 12 8 5q3 -6 3 -16q0 -3 -1 -13t0 -15v-4.5v-5.5v-5t1.5 -3.5t4.5 -0.5q11 3 11 26zM163 338q-2 -4 -9.5 -8t-7.5 -11q0 -1 0.5 -5t0.5 -7t-0.5 -6.5t-2 -4t-5.5 0.5q-3 1 -4 6t-0.5 11.5
t0.5 8.5q0 3 -8.5 5.5t-10.5 7.5q-1 2 -2.5 3.5t-1.5 2.5t-1 2.5t-1 2.5q-2 3 -2 13q-3 26 7 27q4 -4 3.5 -15.5t0.5 -16.5q2 -5 8 -11.5t9 -0.5q1 3 0.5 6t-1 7.5t-0.5 6.5q0 3 -1 9t-1 9q0 1 -1 8t-1 12t3 6t5 -1t3 -5.5t1 -6.5t-0.5 -7t-0.5 -5q0 -2 1 -7t1 -7v-17
q0 -11 5 -10q1 0 2 1q6 4 7 7q2 7 1.5 18t0.5 18q1 4 4 5t5 -3v-15q-2 -24 -6 -34zM116 264q15 -3 5 -13q-2 -2 -14 -2l-30 3q-16 0 -8 8q2 2 4.5 2.5t5.5 0.5h5h6q4 -2 6 -1h9.5t10.5 2z" />
    <glyph glyph-name="menu" unicode="menu" horiz-adv-x="448" 
d="M0 352h448v-96h-448v96zM0 224h448v-96h-448v96zM0 96h448v-96h-448v96z" />
    <glyph glyph-name="pinterest" unicode="pinterest" 
d="M256 448q106 0 181 -75t75 -181t-75 -181t-181 -75t-181 75t-75 181t75 181t181 75zM281 106q62 -5 97 49t25 122q-7 55 -55.5 83.5t-110.5 21.5q-50 -6 -88.5 -42.5t-40.5 -89.5q-3 -76 53 -88q7 19 6 25.5t-8 18.5t-8 20q-6 35 12 65t46.5 45t62.5 12t58 -27
q17 -17 20.5 -49.5t-4.5 -62t-28.5 -49.5t-46.5 -15q-24 5 -25.5 26.5t9 46t12 47.5t-17.5 31q-33 13 -50 -25.5t1 -66.5q-3 -16 -11.5 -47t-12 -48.5t-7.5 -51.5t2 -56q40 29 59 129q4 -3 12 -8l12 -7.5t11.5 -5t15.5 -3.5z" />
    <glyph glyph-name="question" unicode="question" horiz-adv-x="357" 
d="M219 59q7 0 11 -4q5 -5 5 -11v-93q0 -5 -5 -10t-11 -5h-92q-6 0 -11 5t-5 10v93q0 6 5 11q4 4 11 4h92zM341 337q16 -28 16 -61q0 -21 -6 -39q-5 -16 -14 -30q-6 -10 -21 -23q-15 -14 -22 -17q-14 -7 -24 -13q-15 -8 -26 -25t-11 -26q0 -6 -5 -13q-4 -6 -10 -6h-93
q-6 0 -10 7t-4 15v17q0 33 25 61q24 27 55 41q24 11 33 22t9 29t-17 29q-18 12 -42 12q-25 0 -42 -11q-10 -7 -41 -44q-5 -7 -12 -7q-4 0 -10 4l-63 48q-5 5 -6 9q-1 6 2 11q62 103 179 103q31 0 62 -12q30 -12 57 -32q23 -17 41 -49z" />
    <glyph glyph-name="quill" unicode="quill" 
d="M192 155q76 12 132 -2q-36 -46 -68 -57q-43 -14 -75 -14t-43 7l-10 7l-96 -160h-32q21 64 50.5 127.5t77 135t101.5 125t128.5 89t154.5 35.5q-18 -14 -47 -60q-24 -3 -52.5 -13t-44.5 -19l-16 -9q5 1 13.5 2t33.5 2.5t44 -0.5q-6 -10 -17 -30.5t-17 -30.5q-26 8 -64 -2
t-63 -24l-26 -13q74 12 130 -2q-14 -26 -35 -57q-31 9 -66.5 1t-64.5 -23z" />
    <glyph glyph-name="tag" unicode="tag" 
d="M464 448q20 0 34 -14t14 -34v-144q0 -20 -10 -44t-24 -38l-224 -224q-14 -14 -34 -14t-34 14l-172 172q-14 14 -14 34t14 34l224 224q14 14 38 24t44 10h144zM400 288q20 0 34 14t14 34t-14 34t-34 14t-34 -14t-14 -34t14 -34t34 -14z" />
    <glyph glyph-name="tumblr" unicode="tumblr" 
d="M427 448q35 0 60 -25t25 -60v-342q0 -35 -25 -60t-60 -25h-342q-35 0 -60 25t-25 60v342q0 35 25 60t60 25h342zM366 36v55q-26 -17 -54 -17q-15 0 -26 7q-11 5 -14 15q-2 6 -2 38v91h82v63h-82v82h-50q-3 -27 -12 -45q-10 -20 -24 -31q-15 -12 -40 -19v-50h48v-124
q0 -22 5 -37q5 -12 18 -24q11 -10 32 -17t38 -7q20 0 40 5q19 5 41 15z" />
    <glyph glyph-name="twitter" unicode="twitter" 
d="M512 351q-23 -34 -52 -55v-13q0 -72 -33.5 -139t-103.5 -113.5t-162 -46.5q-89 0 -161 47q8 -1 25 -1q73 0 131 45q-34 1 -61.5 21t-37.5 52q12 -2 20 -2q15 0 28 3q-36 8 -60 36.5t-24 66.5v2q20 -11 47 -13q-47 32 -47 87q0 26 15 53q84 -104 216 -110q-3 12 -3 24
q0 43 30.5 74t74.5 31q46 0 77 -33q39 8 67 25q-12 -38 -46 -58q30 4 60 17z" />
    <glyph glyph-name="xing" unicode="xing" horiz-adv-x="394" 
d="M77 99h-67q-6 0 -9 5q-3 4 0 10l71 125v1l-45 78q-3 6 0 10t9 4h67q12 0 18 -12l46 -80l-72 -128q-7 -13 -18 -13zM393 409l-148 -262l94 -172q3 -6 0 -10q-3 -5 -9 -5h-66q-12 0 -19 13l-95 174l149 264q9 13 18 13h67q6 0 9 -5q3 -4 0 -10z" />
    <glyph glyph-name=".notdef" horiz-adv-x="187" 
d="M17 0v341h136v-341h-136zM34 17h102v307h-102v-307z" />
    <glyph glyph-name=".null" horiz-adv-x="0" 
 />
    <glyph glyph-name="nonmarkingreturn" horiz-adv-x="170" 
 />
    <glyph glyph-name="-" unicode="-" 
d="M0 0z" />
    <glyph glyph-name="a" unicode="a" 
d="M0 0z" />
    <glyph glyph-name="b" unicode="b" 
d="M0 0z" />
    <glyph glyph-name="c" unicode="c" 
d="M0 0z" />
    <glyph glyph-name="d" unicode="d" 
d="M0 0z" />
    <glyph glyph-name="e" unicode="e" 
d="M0 0z" />
    <glyph glyph-name="f" unicode="f" 
d="M0 0z" />
    <glyph glyph-name="g" unicode="g" 
d="M0 0z" />
    <glyph glyph-name="h" unicode="h" 
d="M0 0z" />
    <glyph glyph-name="i" unicode="i" 
d="M0 0z" />
    <glyph glyph-name="k" unicode="k" 
d="M0 0z" />
    <glyph glyph-name="l" unicode="l" 
d="M0 0z" />
    <glyph glyph-name="m" unicode="m" 
d="M0 0z" />
    <glyph glyph-name="n" unicode="n" 
d="M0 0z" />
    <glyph glyph-name="o" unicode="o" 
d="M0 0z" />
    <glyph glyph-name="p" unicode="p" 
d="M0 0z" />
    <glyph glyph-name="q" unicode="q" 
d="M0 0z" />
    <glyph glyph-name="r" unicode="r" 
d="M0 0z" />
    <glyph glyph-name="s" unicode="s" 
d="M0 0z" />
    <glyph glyph-name="t" unicode="t" 
d="M0 0z" />
    <glyph glyph-name="u" unicode="u" 
d="M0 0z" />
    <glyph glyph-name="w" unicode="w" 
d="M0 0z" />
    <glyph glyph-name="x" unicode="x" 
d="M0 0z" />
  </font>
</defs>
</svg>
